<?xml version="1.0" encoding="utf-8"?><!DOCTYPE svg PUBLIC
    "-//W3C//DTD SVG 1.1//EN" "http://www.w3.org/Graphics/SVG/1.1/DTD/svg11.dtd">
<svg version="1.1" xmlns="http://www.w3.org/2000/svg" xmlns:xlink="http://www.w3.org/1999/xlink" x="0px" y="0px"
    width="64" height="64.00001" viewBox="0 0 64 64.000001" enable-background="new 0 0 170.226 176.944"
    xml:space="preserve">
<g transform="translate(0,-988.36213)">
    <path d="M 34.183594 7 C 33.761949 7 33.335217 7.163475 33.013672 7.484375 C 32.371249 8.124415 32.371249 9.1802725 33.013672 9.8203125 L 34.648438 11.447266 A 0.50005 0.50005 0 0 0 35.353516 11.447266 L 36.986328 9.8203125 C 37.628751 9.1802725 37.628751 8.124415 36.986328 7.484375 C 36.441078 6.941055 35.636864 6.9608238 35.001953 7.3398438 C 34.7397 7.1820737 34.478906 7 34.183594 7 z M 35.816406 7.9960938 C 35.982785 7.9960938 36.15014 8.0627094 36.28125 8.1933594 C 36.543587 8.4547194 36.543587 8.8499581 36.28125 9.1113281 A 0.50005 0.50005 0 0 0 36.279297 9.1113281 L 35 10.386719 L 33.71875 9.1113281 C 33.456413 8.8499581 33.456413 8.4547194 33.71875 8.1933594 A 0.50005 0.50005 0 0 0 33.720703 8.1933594 C 33.851458 8.0628594 34.014919 8 34.183594 8 C 34.351944 8 34.517753 8.0631994 34.648438 8.1933594 A 0.50005 0.50005 0 0 0 35.353516 8.1933594 C 35.484626 8.0627094 35.650028 7.9960938 35.816406 7.9960938 z M 15.5 11 C 14.677484 11 13.999984 11.6775 14 12.5 C 14 13.3225 14.677495 14 15.5 14 C 16.322505 14 17 13.3225 17 12.5 C 17.000016 11.6775 16.322516 11 15.5 11 z M 15.5 12 C 15.782069 12 16.000006 12.218 16 12.5 C 16 12.7821 15.782065 13 15.5 13 C 15.217935 13 15 12.7821 15 12.5 C 14.999994 12.218 15.217931 12 15.5 12 z M 18.384766 15 C 17.621944 15 16.992188 15.629678 16.992188 16.392578 L 16.992188 22.603516 C 16.992188 23.366416 17.621946 23.996094 18.384766 23.996094 L 19.429688 23.996094 L 19.429688 25.486328 L 19.433594 25.416016 C 19.406784 25.603916 19.458064 25.813478 19.552734 25.955078 C 19.647404 26.096678 19.761431 26.176469 19.853516 26.230469 C 19.945596 26.284469 20.024487 26.316438 20.070312 26.335938 C 20.116142 26.355937 20.141874 26.408109 20.021484 26.287109 A 0.50005316 0.50005316 0 0 0 20.375 26.433594 C 20.505738 26.433594 20.597937 26.329797 20.714844 26.279297 C 20.714844 26.279297 20.716797 26.279297 20.716797 26.279297 A 0.50005316 0.50005316 0 0 0 21.103516 26.095703 L 22.824219 24 L 29.615234 24 C 30.378056 24 31.007813 23.372275 31.007812 22.609375 L 31.007812 16.396484 C 31.007814 15.633584 30.378124 15.003906 29.615234 15.003906 C 25.888599 14.993906 22.150767 15.013906 18.4375 15.003906 A 0.50005316 0.50005316 0 0 0 18.384766 15.003906 L 18.384766 15 z M 18.380859 16.003906 A 0.50005316 0.50005316 0 0 0 18.384766 16.003906 C 22.12004 16.013906 25.875069 15.993906 29.613281 16.003906 A 0.50005316 0.50005316 0 0 0 29.615234 16.003906 C 29.842383 16.003906 30.007814 16.171384 30.007812 16.396484 L 30.007812 22.609375 C 30.007812 22.834475 29.842451 23 29.615234 23 L 22.587891 23 A 0.50005316 0.50005316 0 0 0 22.201172 23.183594 L 20.480469 25.279297 L 20.714844 25.279297 A 0.50005316 0.50005316 0 0 0 20.429688 25.367188 L 20.429688 23.496094 A 0.50005316 0.50005316 0 0 0 19.929688 22.996094 L 18.384766 22.996094 C 18.157556 22.996094 17.992188 22.828616 17.992188 22.603516 L 17.992188 16.392578 C 17.992188 16.169578 18.157116 16.007206 18.380859 16.003906 z M 20 18 L 20 19 L 28.001953 19 L 28.001953 18 L 20 18 z M 38 18.5 L 38 19 L 38 19.5 L 37.5 19.5 L 37 19.5 L 37 20.5 L 37.5 20.5 L 38 20.5 L 38 21 L 38 21.5 L 39 21.5 L 39 21 L 39 20.5 L 39.5 20.5 L 40 20.5 L 40 19.5 L 39.5 19.5 L 39 19.5 L 39 19 L 39 18.5 L 38 18.5 z M 20 20 L 20 21 L 28.001953 21 L 28.001953 20 L 20 20 z M 54 21.5 C 53.039424 21.5 52.250009 22.2895 52.25 23.25 C 52.250009 24.2106 53.039424 25 54 25 C 54.960576 25 55.749991 24.2106 55.75 23.25 C 55.749991 22.2895 54.960576 21.5 54 21.5 z M 48.5 22 A 0.5 0.5 0 0 0 48 22.5 A 0.5 0.5 0 0 0 48.5 23 A 0.5 0.5 0 0 0 49 22.5 A 0.5 0.5 0 0 0 48.5 22 z M 54 22.5 C 54.420139 22.5 54.749996 22.8299 54.75 23.25 C 54.749996 23.6702 54.420139 24 54 24 C 53.579861 24 53.250004 23.6702 53.25 23.25 C 53.250004 22.8299 53.579861 22.5 54 22.5 z M 14 24.5 L 14 25 L 14 25.5 L 13.5 25.5 L 13 25.5 L 13 26.5 L 13.5 26.5 L 14 26.5 L 14 27 L 14 27.5 L 15 27.5 L 15 27 L 15 26.5 L 15.5 26.5 L 16 26.5 L 16 25.5 L 15.5 25.5 L 15 25.5 L 15 25 L 15 24.5 L 14 24.5 z M 49.402344 25.001953 L 49.402344 25.005859 A 0.50005316 0.50005316 0 0 0 49.351562 25.005859 C 44.77623 25.015859 40.18313 25.005859 35.599609 25.005859 C 34.722556 25.005859 34.001953 25.728469 34.001953 26.605469 L 34.001953 29.363281 L 7.328125 29.363281 C 5.5375631 29.363281 4.0839844 30.829353 4.0839844 32.626953 L 4.0878906 32.568359 L 2.0527344 50.560547 L 2.0527344 50.582031 L 2.0507812 50.582031 L 2.0507812 50.583984 L 2 54.039062 C 1.967387 56.227963 3.7589932 58 5.9296875 58 L 58.070312 58 C 60.240955 58 62.001953 56.227175 62.001953 54.046875 L 62.001953 50.591797 C 62.001953 50.591797 62.001953 50.589844 62.001953 50.589844 L 62.001953 50.560547 L 59.966797 32.568359 L 59.96875 32.626953 C 59.96875 30.829353 58.515179 29.363281 56.724609 29.363281 L 51 29.363281 L 51 26.601562 C 51 25.724462 50.279342 25.001953 49.402344 25.001953 z M 23.5 25.5 A 0.5 0.5 0 0 0 23 26 A 0.5 0.5 0 0 0 23.5 26.5 A 0.5 0.5 0 0 0 24 26 A 0.5 0.5 0 0 0 23.5 25.5 z M 35.599609 26.005859 L 35.599609 26.009766 C 40.197955 26.009766 44.807985 26.019766 49.402344 26.009766 A 0.50005316 0.50005316 0 0 0 49.40625 26.009766 C 49.742853 26.009766 50 26.266769 50 26.605469 L 50 34.398438 C 50 34.739137 49.742224 34.998047 49.402344 34.998047 L 47.503906 34.998047 A 0.50005316 0.50005316 0 0 0 47.003906 35.498047 L 47.003906 37.951172 C 47.002106 37.981172 46.985788 37.996094 46.955078 37.996094 C 46.941108 37.996094 46.927739 37.985516 46.917969 37.978516 C 46.151796 37.053516 45.388172 36.116041 44.623047 35.181641 A 0.50005316 0.50005316 0 0 0 44.236328 34.998047 L 35.599609 34.998047 C 35.259724 34.998047 35.001953 34.739137 35.001953 34.398438 L 35.001953 26.605469 C 35.001953 26.264669 35.259779 26.005859 35.599609 26.005859 z M 21.091797 26.105469 C 20.999139 26.212214 20.851027 26.224092 20.722656 26.277344 L 21.091797 26.105469 z M 37 27.994141 L 37 29.005859 L 48 29.005859 L 48 27.994141 L 37 27.994141 z M 37 30.005859 L 37 31.005859 L 48 31.005859 L 48 30.005859 L 37 30.005859 z M 7.328125 30.363281 L 10.761719 30.363281 L 9.4101562 51.941406 A 0.50004997 0.50004997 0 0 0 9.9101562 52.472656 L 53.726562 52.472656 A 0.50004997 0.50004997 0 0 0 54.224609 51.941406 L 52.875 30.363281 L 56.724609 30.363281 C 57.974679 30.363281 58.96875 31.362253 58.96875 32.626953 L 58.96875 32.654297 L 61 50.607422 C 60.9925 52.426322 59.687344 54.236328 57.298828 54.236328 L 34.875 54.236328 L 31.505859 54.236328 L 6.34375 54.236328 C 5.147083 54.236328 4.3716225 53.797259 3.84375 53.130859 C 3.3179588 52.467059 3.0587126 51.542762 3.0566406 50.601562 L 5.0839844 32.65625 L 5.0839844 32.626953 C 5.0839844 31.362253 6.0780669 30.363281 7.328125 30.363281 z M 11.763672 30.363281 L 34.001953 30.363281 L 34.001953 34.398438 C 34.001953 35.275437 34.722611 35.998047 35.599609 35.998047 L 44 35.998047 C 44.716214 36.873247 45.432819 37.7541 46.154297 38.625 A 0.50005316 0.50005316 0 0 0 46.160156 38.634766 C 46.35898 38.865666 46.649253 38.998047 46.955078 38.998047 C 47.521412 38.998247 47.99294 38.53465 48.003906 37.96875 A 0.50005316 0.50005316 0 0 0 48.003906 37.958984 L 48.003906 37.947266 L 48.003906 35.994141 L 49.402344 35.994141 C 50.27934 35.994141 51 35.271531 51 34.394531 L 51 30.363281 L 51.873047 30.363281 L 53.193359 51.472656 L 10.441406 51.472656 L 11.763672 30.363281 z M 37 32.005859 L 37 33.005859 L 43 33.005859 L 43 32.005859 L 37 32.005859 z M 15.597656 33.005859 C 14.720658 33.005859 14 33.728369 14 34.605469 L 14 42.398438 C 14 43.275437 14.72066 43.998047 15.597656 43.998047 L 16.996094 43.998047 L 16.996094 45.919922 C 16.968697 46.129933 16.920644 46.400322 17.146484 46.685547 C 17.264422 46.834547 17.437464 46.920684 17.589844 46.958984 C 17.742223 46.996984 17.887969 47.002047 18.056641 46.998047 A 0.50005316 0.50005316 0 0 0 18.398438 46.851562 C 19.82743 45.422562 20.846394 44.1684 20.984375 44 L 29.451172 44 C 30.32817 44 31.048828 43.277391 31.048828 42.400391 L 31.048828 34.607422 C 31.048828 33.730422 30.328225 33.007812 29.451172 33.007812 C 24.851378 33.007812 20.24201 33.017812 15.650391 33.007812 A 0.50005316 0.50005316 0 0 0 15.597656 33.007812 L 15.597656 33.005859 z M 15.59375 34.009766 A 0.50005316 0.50005316 0 0 0 15.597656 34.009766 C 20.208937 34.019766 24.835897 34.009766 29.451172 34.009766 C 29.791003 34.009766 30.048828 34.268575 30.048828 34.609375 L 30.048828 42.402344 C 30.048828 42.743044 29.791057 43.001953 29.451172 43.001953 L 20.763672 43.001953 A 0.50005316 0.50005316 0 0 0 20.376953 43.185547 C 20.376953 43.185547 19.241362 44.516147 17.996094 45.810547 L 17.996094 43.498047 A 0.50005316 0.50005316 0 0 0 17.496094 42.998047 L 15.597656 42.998047 C 15.257776 42.998047 15 42.739137 15 42.398438 L 15 34.605469 C 15 34.266769 15.257147 34.013066 15.59375 34.009766 z M 17 35.994141 L 17 37.005859 L 28 37.005859 L 28 35.994141 L 17 35.994141 z M 41.707031 38 L 41 38.707031 L 41.292969 39 L 41 39.292969 L 41.707031 40 L 42 39.707031 L 42.292969 40 L 43 39.292969 L 42.707031 39 L 43 38.707031 L 42.292969 38 L 42 38.292969 L 41.707031 38 z M 17 38.005859 L 17 39.005859 L 28 39.005859 L 28 38.005859 L 17 38.005859 z M 7.0292969 38.796875 L 6.6191406 42.941406 L 7.6132812 43.041016 L 8.0253906 38.894531 L 7.0292969 38.796875 z M 22 40.005859 L 22 41.005859 L 28 41.005859 L 28 40.005859 L 22 40.005859 z M 56.242188 40.419922 C 55.206041 40.397922 54.486255 41.231066 54.636719 42.259766 C 54.787175 43.288266 55.754919 44.155834 56.791016 44.177734 C 57.827113 44.199734 58.544908 43.368444 58.394531 42.339844 C 58.244134 41.311144 57.278336 40.441822 56.242188 40.419922 z M 56.386719 41.414062 C 56.870917 41.424062 57.317842 41.820559 57.390625 42.318359 C 57.463395 42.816159 57.130657 43.193794 56.646484 43.183594 C 56.162311 43.173594 55.717334 42.77895 55.644531 42.28125 C 55.571711 41.78345 55.90252 41.403863 56.386719 41.414062 z M 6.796875 44.373047 A 0.68606508 0.69092786 0 0 0 6.1582031 45.0625 A 0.68606508 0.69092786 0 0 0 6.8457031 45.753906 A 0.68606508 0.69092786 0 0 0 7.53125 45.0625 A 0.68606508 0.69092786 0 0 0 6.8457031 44.373047 A 0.68606508 0.69092786 0 0 0 6.796875 44.373047 z M 24.5 46 A 0.5 0.5 0 0 0 24 46.5 A 0.5 0.5 0 0 0 24.5 47 A 0.5 0.5 0 0 0 25 46.5 A 0.5 0.5 0 0 0 24.5 46 z M 61.001953 53.447266 L 61.001953 54.046875 C 61.001953 55.694175 59.700431 57 58.070312 57 L 5.9296875 57 C 4.2996218 57 2.9755931 55.690834 3 54.052734 L 3.0058594 53.664062 C 3.0263994 53.691371 3.0392797 53.723152 3.0605469 53.75 C 3.7641244 54.6382 4.886717 55.234375 6.34375 55.234375 L 31.505859 55.234375 L 34.875 55.234375 L 57.298828 55.234375 C 58.930925 55.234375 60.192528 54.495299 61.001953 53.447266 z " transform="translate(0,988.36213)">

    </path>
</g>
</svg>
